<svg xmlns="http://www.w3.org/2000/svg" viewBox="0 0 240 220"><defs><filter id="s"><feDropShadow dx="0" dy="8" stdDeviation="6" flood-color="#3d261d" flood-opacity=".28"/></filter><filter id="n"><feTurbulence type="fractalNoise" baseFrequency=".09" numOctaves="2" seed="7"/><feBlend in="SourceGraphic" mode="soft-light"/></filter></defs><g filter="url(#s)"><path d="M120 194C89 164 32 127 32 76c0-31 23-53 52-53 20 0 32 10 45 28 13-18 27-28 47-28 29 0 52 22 52 53 0 51-58 88-108 118Z" fill="#c9484b" stroke="#f4d6b0" stroke-width="16" stroke-linejoin="round"/><path d="M120 178C92 151 50 119 50 79c0-22 15-38 35-38 18 0 27 10 35 24 8-14 18-24 36-24 20 0 35 16 35 38 0 40-42 72-71 99Z" fill="#597c91" stroke="#f4d6b0" stroke-width="4" stroke-dasharray="4 5" filter="url(#n)"/></g></svg>