<svg xmlns="http://www.w3.org/2000/svg" viewBox="0 0 220 260"><defs><filter id="s"><feDropShadow dx="0" dy="8" stdDeviation="6" flood-color="#382219" flood-opacity=".28"/></filter><filter id="n"><feTurbulence type="fractalNoise" baseFrequency=".08" numOctaves="2" seed="9"/><feBlend in="SourceGraphic" mode="soft-light"/></filter></defs><g filter="url(#s)"><path d="M110 236C69 208 39 159 44 111c5-45 34-69 66-69 33 0 62 24 67 69 5 48-25 97-67 125Z" fill="#bd3d3d" stroke="#f3dfbf" stroke-width="13" filter="url(#n)"/><path d="M74 61C59 38 71 18 100 34c8-25 32-26 39 1 28-16 41 7 22 29-28-10-59-11-87-3Z" fill="#5f8157" stroke="#f3dfbf" stroke-width="9"/><g fill="#f2cf65"><ellipse cx="79" cy="113" rx="5" ry="10"/><ellipse cx="117" cy="98" rx="5" ry="10"/><ellipse cx="146" cy="126" rx="5" ry="10"/><ellipse cx="93" cy="151" rx="5" ry="10"/><ellipse cx="132" cy="169" rx="5" ry="10"/><ellipse cx="76" cy="188" rx="5" ry="10"/></g></g></svg>